HIERARCHY
ROOT Hips
{
  OFFSET -125.086 92.215 135.881
  CHANNELS 6 Xposition Yposition Zposition Zrotation Xrotation Yrotation
  JOINT LeftUpLeg
  {
    OFFSET 8.64259 1.95398 -2.38835
    CHANNELS 3 Zrotation Xrotation Yrotation
    JOINT LeftLeg
    {
      OFFSET 43.7702 0 0
      CHANNELS 3 Zrotation Xrotation Yrotation
      JOINT LeftFoot
      {
        OFFSET 40.6238 0 0
        CHANNELS 3 Zrotation Xrotation Yrotation
        JOINT LeftToeBase
        {
          OFFSET 12.7242 0 0
          CHANNELS 3 Zrotation Xrotation Yrotation
          End Site
          {
            OFFSET 0 0 0
          }
        }
      }
    }
  }
  JOINT RightUpLeg
  {
    OFFSET -8.2249 1.95398 -2.59336
    CHANNELS 3 Zrotation Xrotation Yrotation
    JOINT RightLeg
    {
      OFFSET 43.5653 0 0
      CHANNELS 3 Zrotation Xrotation Yrotation
      JOINT RightFoot
      {
        OFFSET 40.6238 0 0
        CHANNELS 3 Zrotation Xrotation Yrotation
        JOINT RightToeBase
        {
          OFFSET 12.7242 0 0
          CHANNELS 3 Zrotation Xrotation Yrotation
          End Site
          {
            OFFSET 0 0 0
          }
        }
      }
    }
  }
  JOINT Spine
  {
    OFFSET 0.165834 0.87714 6.61349
    CHANNELS 3 Zrotation Xrotation Yrotation
    JOINT Spine1
    {
      OFFSET 7.38963 1.71661e-005 0
      CHANNELS 3 Zrotation Xrotation Yrotation
      JOINT Spine2
      {
        OFFSET 11.9445 1.14441e-005 0
        CHANNELS 3 Zrotation Xrotation Yrotation
        JOINT Spine3
        {
          OFFSET 14.7254 4.19617e-005 0
          CHANNELS 3 Zrotation Xrotation Yrotation
          JOINT Spine4
          {
            OFFSET 10.9679 0 0
            CHANNELS 3 Zrotation Xrotation Yrotation
            JOINT RightShoulder
            {
              OFFSET 2.46616 -1.6653 3.69651
              CHANNELS 3 Zrotation Xrotation Yrotation
              JOINT RightArm
              {
                OFFSET 13.0012 0 0
                CHANNELS 3 Zrotation Xrotation Yrotation
                JOINT RightForeArm
                {
                  OFFSET 28.7848 1.52588e-005 0
                  CHANNELS 3 Zrotation Xrotation Yrotation
                  JOINT RightHand
                  {
                    OFFSET 26.5688 1.52588e-005 0
                    CHANNELS 3 Zrotation Xrotation Yrotation
                    End Site
                    {
                      OFFSET 0 0 0
                    }
                  }
                }
              }
            }
            JOINT LeftShoulder
            {
              OFFSET 2.38034 -1.29275 -3.7523
              CHANNELS 3 Zrotation Xrotation Yrotation
              JOINT LeftArm
              {
                OFFSET 16.3182 6.10352e-005 0
                CHANNELS 3 Zrotation Xrotation Yrotation
                JOINT LeftForeArm
                {
                  OFFSET 27.0901 0 0
                  CHANNELS 3 Zrotation Xrotation Yrotation
                  JOINT LeftHand
                  {
                    OFFSET 24.5451 1.52588e-005 0
                    CHANNELS 3 Zrotation Xrotation Yrotation
                    End Site
                    {
                      OFFSET 0 0 0
                    }
                  }
                }
              }
            }
            JOINT Neck
            {
              OFFSET 5.0226 -0.0266342 0
              CHANNELS 3 Zrotation Xrotation Yrotation
              JOINT Head
              {
                OFFSET 6.69363 2.86102e-005 0
                CHANNELS 3 Zrotation Xrotation Yrotation
                End Site
                {
                  OFFSET 0 0 0
                }
              }
            }
          }
        }
      }
    }
  }
}
MOTION
Frames:	18
Frame Time:	0.0416667
-77.903 93.1171 113.69 101.886 40.1169 83.6098 -178.858 15.2827 87.6354 -8.39946 10.6247 1.82845 52.639 -0.0587933 3.03324 42.9545 -1.12947 8.96285 175.61 -4.47237 91.6837 -35.3991 -4.68994 -1.50431 70.4631 -2.21518 15.457 48.4021 -3.03141 0.258503 0.464701 7.89487 -90.3665 11.0864 0.754867 -0.802433 -0.584602 0.71882 -0.834879 -23.1205 0.961129 -0.538465 -3.10784 0.961122 -0.538465 112.23 -57.906 -67.9324 16.3488 -6.17184 -29.3437 -1.24308 -27.9852 -23.9829 -13.1601 -0.96403 3.41801 -72.6652 -50.848 104.666 -41.6573 -19.1161 -14.4574 10.6422 72.9797 0.0641177 -6.8733 0.167768 -10.9355 -3.32058 -0.755561 -1.66299 -30.5942 -0.961238 1.61422 
-70.8837 92.7705 107.861 101.697 39.6286 82.699 -179.163 16.0244 86.3822 -17.9172 15.8398 2.21005 48.1717 -3.4816 8.06385 41.2835 -1.05267 4.07033 174.325 -5.50383 88.6842 -40.4508 -7.57181 -1.90232 57.9147 1.37045 19.24 62.9606 -3.89213 7.12719 0.406063 7.71595 -89.946 11.4423 0.833162 0.0228062 -0.228403 0.833342 -0.0138865 -22.7655 0.787793 0.272168 -2.7529 0.787783 0.272162 113.911 -59.0539 -65.787 17.5298 -6.75799 -23.8529 -1.74863 -27.9607 -24.7198 -12.8588 -0.831296 2.39716 -72.4032 -50.821 105.062 -40.4096 -19.3116 -15.361 11.0839 69.6659 0.0552753 -7.19522 0.173777 -10.6394 -5.354 -0.936794 -4.10592 -30.0428 -1.49424 3.98264 
-64.7829 92.3043 102.802 102.619 39.5744 80.5767 -177.849 15.9465 84.6186 -29.9853 15.714 1.7017 57.274 0.796337 12.0662 35.0051 -0.572963 0.366563 171.814 1.50853 83.6076 -55.0756 -10.3109 -1.79501 43.3678 5.29656 21.9127 65.0999 -2.91049 12.7016 0.176145 7.71625 -89.5221 11.4386 0.573844 0.897414 -0.23254 0.612759 0.871289 -22.7656 0.277608 1.02837 -2.75295 0.277597 1.02837 114.13 -59.0769 -65.4885 21.4123 -4.79382 -17.36 -1.92596 -32.3076 -20.9361 -12.7685 -0.837666 2.5088 -73.0706 -50.5948 104.078 -39.55 -17.876 -18.2575 10.0866 67.5302 0.0490981 -6.63956 0.15507 -10.9895 -5.46592 -0.429288 -4.4971 -29.9863 -1.06827 4.47962 
-59.1384 92.971 98.2572 104.521 39.7855 80.0669 -176.809 10.5436 85.4697 -32.4806 16.4221 2.24131 61.9943 3.82629 13.3667 37.872 -0.771898 -0.175347 172.046 12.7407 85.3452 -65.5622 -10.6335 -1.79714 46.776 3.97211 19.4508 49.9732 -2.70937 7.95778 -0.155683 7.9719 -89.5484 10.9301 -0.101014 0.90561 -0.741143 -0.0610629 0.909166 -23.2741 -0.368511 0.833386 -3.2615 -0.368511 0.833386 114.633 -59.2461 -64.8258 24.5269 0.511835 -15.7794 0.679932 -37.1279 -11.1077 -11.9543 -0.821082 2.89111 -73.2627 -50.9733 103.758 -40.2488 -14.9401 -25.4813 10.2114 63.9364 0.0392611 -4.32355 0.0109957 -10.1954 -5.54094 0.749906 -3.29048 -29.8779 -0.394356 6.2137 
-53.5262 93.8537 93.9091 104.982 42.5747 81.1735 -176.664 5.62002 87.0153 -32.4388 18.3284 4.05145 64.8552 6.26168 13.4708 40.4103 -0.993579 0.107691 171.129 19.3038 87.2669 -58.1658 -8.00778 0.296655 53.4958 1.89846 19.8782 38.3277 -1.46169 -1.94391 -0.544115 7.96972 -89.8148 10.9366 -0.997379 0.462926 -0.734034 -0.976025 0.506371 -23.2722 -1.09041 0.141751 -3.2595 -1.09038 0.14174 115.959 -59.7115 -63.0981 25.2326 5.27397 -12.2147 1.3565 -38.4722 -6.14435 -11.0041 -0.822246 3.63889 -73.3265 -50.3065 103.714 -41.8434 -10.1849 -33.2323 9.62236 61.5553 0.0303862 -2.03309 -0.106531 -9.77448 -7.33289 1.69016 -3.89711 -30.7325 0.0142306 8.19413 
-48.0757 94.3836 89.8172 105.422 44.4216 80.885 -176.061 0.271797 87.8196 -30.317 20.1014 4.93903 66.4636 8.29324 13.4621 42.8052 -1.18429 1.80672 170.977 18.4118 86.9071 -34.4796 0.715925 2.33959 54.1239 1.55702 20.3649 33.2605 -0.475857 -2.85281 -0.693336 7.94155 -89.9429 10.9927 -1.35377 0.242804 -0.677621 -1.34178 0.302148 -23.2184 -1.36413 -0.175358 -3.20575 -1.36415 -0.175371 116.567 -59.7606 -62.2765 25.0886 8.03374 -7.54853 0.667129 -38.6197 -5.61686 -9.67485 -0.80648 4.68345 -74.5272 -48.8529 101.982 -40.4479 -4.57295 -36.4068 6.59193 57.0738 -2.13657 -2.98931 -0.0598567 -10.3618 -7.90837 2.10688 -3.9248 -30.8131 0.350019 8.44696 
-42.3719 94.4235 85.6607 104.956 45.1638 79.2786 -175.682 -5.63835 87.6962 -27.2896 21.3166 4.72643 66.2965 9.36315 13.5853 47.5409 -1.44218 3.2575 174.391 14.6367 84.866 -9.04169 7.50468 0.166796 51.3765 2.75922 22.5297 27.1774 0.767378 -4.2045 -0.699033 7.83066 -89.9101 11.2146 -1.34932 0.311265 -0.455754 -1.33432 0.370356 -22.9965 -1.38049 -0.108733 -2.98386 -1.3805 -0.10874 116.375 -59.6224 -62.5089 24.9553 10.071 -5.0603 0.714379 -37.8115 -3.58492 -8.65162 -0.616305 3.30066 -74.4119 -48.7439 102.166 -38.272 -0.592937 -37.9396 14.1571 53.3154 -16.7052 -1.69976 -0.127166 -10.8028 -7.6838 1.76908 -1.58617 -31.6729 0.368039 6.11893 
-36.0111 93.6089 81.3431 105.303 47.1389 78.1353 -176.711 -7.80502 87.6732 -32.6875 23.8505 6.63636 66.0117 10.0399 14.1107 54.1114 -1.27222 8.11384 174.418 15.06 83.6976 -9.77248 5.20759 0.000764486 47.452 4.40266 17.4857 33.1856 -0.344468 -5.99264 -0.792238 7.72525 -90.0582 11.4238 -1.60338 0.046755 -0.246155 -1.59977 0.117284 -22.7887 -1.5433 -0.43741 -2.77606 -1.54329 -0.437407 117.239 -59.912 -61.394 23.7604 10.6536 -5.72401 0.66878 -38.1263 -3.11084 -7.47674 -0.522019 3.14793 -74.064 -49.3209 102.664 -37.706 0.952631 -36.4103 19.0175 50.6122 -25.7481 -1.86328 -0.119043 -10.8975 -7.68933 1.08643 -0.157914 -32.2998 -0.129451 4.8136 
-29.0637 93.8784 76.8962 105.834 46.7458 79.4537 -177.271 -7.41988 90.4423 -41.7293 21.2599 7.99144 60.5031 5.43858 5.89393 63.3931 -1.23913 9.09048 174.482 16.0292 85.6096 -21.4617 3.12095 0.474857 49.2407 5.01894 17.4168 30.6006 0.395488 -8.18081 -0.696749 7.61174 -90.5463 11.6437 -1.64199 -0.917977 -0.0265001 -1.6808 -0.844808 -22.5647 -1.29019 -1.36903 -2.55204 -1.2902 -1.36903 117.07 -59.767 -61.5901 21.9182 8.85109 -7.97581 0.888249 -35.7963 -4.73135 -8.10686 -0.621551 3.96961 -72.8034 -51.0701 104.439 -38.9666 -0.730447 -31.2211 20.1364 53.7696 -25.8447 -1.40683 -0.150876 -11.523 -9.54541 0.867977 -0.0309774 -32.3418 -0.656985 5.96082 
-22.8844 93.7133 73.4709 106.077 46.7052 80.9968 -176.428 0.953081 95.7736 -58.2323 11.7814 6.32106 48.2185 -1.2005 -3.45177 60.2859 -2.59336 0.874952 174.221 15.7882 88.1 -30.6826 0.43916 1.70869 56.1997 4.0178 12.2979 30.1166 0.386565 -6.75356 -0.721707 7.57452 -90.9412 11.7093 -1.87716 -1.6822 0.0386741 -1.94938 -1.59795 -22.4936 -1.28497 -2.16846 -2.48098 -1.28495 -2.16847 117.298 -59.8312 -61.2945 19.4643 4.96545 -12.7345 0.835212 -33.0838 -8.91867 -8.89448 -0.596799 2.79727 -73.1011 -50.5984 104.031 -42.9393 -5.61291 -25.1243 14.3808 58.1684 -13.6918 -2.75211 -0.0697246 -11.0696 -8.37872 0.360534 -1.78029 -33.3334 -1.32044 6.76049 
-17.7854 93.823 70.6198 108.362 47.1781 80.4725 -177.717 12.2519 93.7817 -68.4115 8.12786 5.68095 51.4771 2.07944 5.03489 56.9917 -1.31895 8.18678 173.931 11.7852 89.7853 -34.2264 1.73647 2.22073 61.5026 3.34863 11.9274 30.5036 0.117904 -4.65082 -0.674041 7.93533 -91.1417 10.981 -1.87021 -2.08998 -0.690136 -1.96037 -2.00567 -23.2166 -1.15588 -2.5552 -3.20391 -1.15588 -2.5552 116.582 -59.4428 -62.1853 18.9407 1.49232 -18.9045 0.559203 -28.6522 -13.3838 -12.0467 -0.686548 1.50126 -74.2184 -49.9989 102.383 -46.6566 -10.8602 -25.1639 7.862 67.8622 1.61085 -5.47344 0.100616 -11.1616 -6.43066 -0.719809 -3.75258 -31.9308 -1.85061 5.6759 
-13.105 94.6597 67.6593 107.289 43.1738 80.5224 -177.491 16.1093 91.4417 -57.8818 9.91805 4.19023 55.5429 4.46422 5.48318 59.8679 -0.598963 12.9249 174.414 7.70589 89.5457 -33.0305 0.598429 1.04954 65.3407 2.58146 13.9927 28.2908 0.523705 -4.3235 -0.269561 8.09313 -90.9753 10.6767 -0.986002 -1.84942 -0.99516 -1.06643 -1.80427 -23.5204 -0.384732 -2.06017 -3.50776 -0.384731 -2.06018 114.936 -58.4825 -64.2511 19.9617 -0.762844 -23.5879 -1.09502 -26.5597 -18.4076 -13.0988 -0.752313 1.52984 -74.3239 -49.9645 102.226 -46.8191 -16.0126 -22.8133 13.0704 77.4801 0.0964819 -10.2923 0.408433 -11.6172 -7.94666 -0.550819 -5.87447 -29.8514 -1.89396 7.49501 
-8.76955 95.1834 64.7763 104.266 39.5326 83.4768 -178.835 16.4953 91.4856 -34.9438 10.16 3.74267 53.7184 3.4662 5.076 60.5034 -0.480855 13.6346 174.954 4.72277 90.4515 -30.5163 1.80459 0.573106 68.2953 1.74759 18.0753 26.2081 0.947155 -4.43255 0.0121281 8.03197 -91.0029 10.802 -0.438756 -1.95358 -0.87029 -0.524282 -1.9324 -23.3937 0.168518 -1.99512 -3.38102 0.168528 -1.99512 113.653 -57.735 -65.899 18.6532 -4.01429 -27.1978 -1.66001 -26.1347 -22.9102 -11.7844 -0.674286 1.52005 -73.092 -51.3907 103.981 -42.9434 -17.8035 -17.673 11.3639 72.6389 0.0755294 -6.5036 0.146307 -10.9295 -7.56236 0.80601 -5.94105 -29.2352 -1.0395 10.0257 
-4.38426 95.4492 61.7283 102.31 37.2675 85.8757 177.973 13.2411 93.1639 -11.9052 21.165 4.49478 48.2979 0.357508 -0.536647 59.7258 -1.1172 10.1562 175.259 2.23747 91.5778 -29.6171 0.278798 0.42183 68.5312 0.681592 17.7241 30.9697 -0.0880223 -3.21187 0.0566293 7.9771 -90.9685 10.913 -0.335096 -1.89482 -0.759242 -0.418137 -1.87825 -23.2834 0.249763 -1.90795 -3.27074 0.249748 -1.90794 113.633 -58.0034 -65.9772 17.0839 -6.5678 -29.2499 -1.19059 -26.036 -24.4787 -11.8762 -0.659189 1.30915 -73.0629 -50.7712 104.075 -42.5254 -17.9693 -14.062 10.3909 67.9156 0.0576558 -5.67795 0.0919654 -10.686 -7.18084 1.98338 -8.50996 -28.2847 -0.431388 14.0081 
0.43443 95.1714 57.965 101.568 33.8083 87.3419 177.968 12.9963 92.221 -11.9367 29.6672 9.04326 48.7761 -2.18439 -4.14853 60.6393 -2.44477 1.84558 175.582 -0.532 91.7556 -30.6387 -1.87112 -0.341471 70.3844 -0.926277 17.0472 35.2297 -0.931989 -1.84854 0.217212 7.87474 -90.8243 11.1213 0.0496766 -1.64563 -0.550705 -0.0227782 -1.64623 -23.0781 0.541902 -1.55467 -3.06542 0.541906 -1.55467 113.773 -58.4474 -65.8651 18.9342 -5.49123 -27.2487 -1.52718 -28.757 -22.3591 -11.6328 -0.630614 1.15493 -72.415 -51.2903 105.001 -41.722 -18.1616 -14.8863 10.1542 70.8628 0.0584008 -9.2004 0.323344 -11.3074 -7.70742 2.62599 -10.2044 -27.1318 0.0730086 15.8236 
5.11913 95.1525 53.5406 101.349 29.4606 87.0379 178.932 8.96186 91.3328 -10.7048 28.7254 7.26933 46.0223 -3.00637 2.17811 41.1284 -0.998142 0.868218 175.33 -3.34928 89.4352 -32.4329 -4.89472 -2.16931 68.6823 -1.16667 17.7576 44.385 -2.49736 -1.48872 0.280281 7.70442 -90.4981 11.4666 0.324891 -1.02541 -0.204716 0.279465 -1.03872 -22.7378 0.618043 -0.88038 -2.72513 0.618058 -0.880371 115.158 -59.7305 -64.2019 20.8264 -2.01874 -24.7604 1.15488 -33.9913 -13.5326 -11.2814 -0.648128 1.55371 -71.3962 -52.4301 106.399 -40.8134 -18.1082 -17.319 10.454 71.8146 0.050482 -6.12935 0.120269 -10.5114 -7.76036 3.74436 -10.2759 -26.8586 0.941188 17.2211 
8.50395 95.0712 49.7435 100.041 26.6847 87.4992 179.725 11.3614 90.1576 -20.4121 26.5363 7.24423 51.6908 -0.844261 5.85076 39.3245 -0.897433 -0.108254 174.69 0.747504 87.3788 -40.312 -7.97527 -2.3569 60.2701 0.429236 18.6857 56.5118 -4.27861 0.299933 0.304484 7.48231 -90.2458 11.9102 0.490131 -0.542851 0.239255 0.465741 -0.563906 -22.2962 0.630606 -0.370454 -2.28351 0.630569 -0.37047 114.662 -59.5878 -64.8545 25.4773 4.82005 -19.3092 2.07403 -38.186 -4.75673 -10.7324 -0.658426 2.03137 -72.2377 -51.4882 105.247 -42.28 -15.672 -21.9915 10.2464 70.8385 0.0375254 -4.53726 0.0227353 -10.3592 -7.28255 5.30546 -10.3462 -25.2565 2.49469 18.8842 
10.7828 94.4702 46.8728 101.245 25.5481 86.5378 -178.646 11.5447 89.2092 -27.4844 25.6118 6.25526 57.5781 1.72445 7.13291 37.8645 -0.723501 -1.49104 173.584 8.04477 85.2378 -54.3062 -8.21795 -2.3449 50.7138 2.64004 18.0843 53.8124 -3.27455 4.97078 0.104914 7.73305 -90.1189 11.409 0.153301 -0.251746 -0.261909 0.142068 -0.258252 -22.7971 0.221874 -0.194029 -2.78449 0.221908 -0.19403 114.068 -59.1357 -65.5862 26.1806 8.39417 -15.9899 2.79251 -39.5325 -0.678064 -8.91717 -0.568558 2.3589 -72.7029 -51.1929 104.578 -40.7066 -9.73363 -27.6697 5.88086 65.1402 0.252357 -3.31411 -0.0382323 -10.7267 -5.45268 8.72265 -12.2084 -22.14 6.04363 23.4079 
